<svg viewBox="0 0 200 200" width="200" height="200" xmlns="http://www.w3.org/2000/svg">
<circle cx="100.0" cy="57.0" r="4.96" fill="#009900"/>
<circle cx="110.29" cy="58.25" r="4.96" fill="#E13940"/>
<circle cx="119.98" cy="61.93" r="4.96" fill="#E13940"/>
<circle cx="128.51" cy="67.81" r="4.96" fill="#E13940"/>
<circle cx="135.39" cy="75.57" r="4.96" fill="#E13940"/>
<circle cx="140.21" cy="84.75" r="4.96" fill="#E13940"/>
<circle cx="142.69" cy="94.82" r="4.96" fill="#E13940"/>
<circle cx="142.69" cy="105.18" r="4.96" fill="#E13940"/>
<circle cx="140.21" cy="115.25" r="4.96" fill="#E13940"/>
<circle cx="135.39" cy="124.43" r="4.96" fill="#E13940"/>
<circle cx="128.51" cy="132.19" r="4.96" fill="#E13940"/>
<circle cx="119.98" cy="138.07" r="4.96" fill="#E13940"/>
<circle cx="110.29" cy="141.75" r="4.96" fill="#E13940"/>
<circle cx="100.0" cy="143.0" r="4.96" fill="#E13940"/>
<circle cx="89.71" cy="141.75" r="4.96" fill="#E13940"/>
<circle cx="80.02" cy="138.07" r="4.96" fill="#E13940"/>
<circle cx="71.49" cy="132.19" r="4.96" fill="#E13940"/>
<circle cx="64.61" cy="124.43" r="4.96" fill="#008B96"/>
<circle cx="59.79" cy="115.25" r="4.96" fill="#4B9FB4"/>
<circle cx="57.31" cy="105.18" r="4.96" fill="#006946"/>
<circle cx="57.31" cy="94.82" r="4.96" fill="#006946"/>
<circle cx="59.79" cy="84.75" r="4.96" fill="#1C4F9C"/>
<circle cx="64.61" cy="75.57" r="4.96" fill="#1C4F9C"/>
<circle cx="71.49" cy="67.81" r="4.96" fill="#1C4F9C"/>
<circle cx="80.02" cy="61.93" r="4.96" fill="#1C4F9C"/>
<circle cx="89.71" cy="58.25" r="4.96" fill="#1C4F9C"/>
<circle cx="100.0" cy="44.0" r="4.96" fill="#E13940"/>
<circle cx="110.29" cy="44.95" r="4.96" fill="#E13940"/>
<circle cx="120.23" cy="47.78" r="4.96" fill="#E13940"/>
<circle cx="129.48" cy="52.39" r="4.96" fill="#E13940"/>
<circle cx="137.73" cy="58.62" r="4.96" fill="#E13940"/>
<circle cx="144.69" cy="66.25" r="4.96" fill="#E13940"/>
<circle cx="150.13" cy="75.04" r="4.96" fill="#E13940"/>
<circle cx="153.86" cy="84.67" r="4.96" fill="#E13940"/>
<circle cx="155.76" cy="94.83" r="4.96" fill="#E13940"/>
<circle cx="155.76" cy="105.17" r="4.96" fill="#E13940"/>
<circle cx="153.86" cy="115.33" r="4.96" fill="#E13940"/>
<circle cx="150.13" cy="124.96" r="4.96" fill="#E13940"/>
<circle cx="144.69" cy="133.75" r="4.96" fill="#E13940"/>
<circle cx="137.73" cy="141.38" r="4.96" fill="#E13940"/>
<circle cx="129.48" cy="147.61" r="4.96" fill="#E13940"/>
<circle cx="120.23" cy="152.22" r="4.96" fill="#E13940"/>
<circle cx="110.29" cy="155.05" r="4.96" fill="#E13940"/>
<circle cx="100.0" cy="156.0" r="4.96" fill="#E13940"/>
<circle cx="89.71" cy="155.05" r="4.96" fill="#E13940"/>
<circle cx="79.77" cy="152.22" r="4.96" fill="#E13940"/>
<circle cx="70.52" cy="147.61" r="4.96" fill="#E13940"/>
<circle cx="62.27" cy="141.38" r="4.96" fill="#008B96"/>
<circle cx="55.31" cy="133.75" r="4.96" fill="#008B96"/>
<circle cx="49.87" cy="124.96" r="4.96" fill="#808080"/>
<circle cx="46.14" cy="115.33" r="4.96" fill="#F36C21"/>
<circle cx="44.24" cy="105.17" r="4.96" fill="#006946"/>
<circle cx="44.24" cy="94.83" r="4.96" fill="#006946"/>
<circle cx="46.14" cy="84.67" r="4.96" fill="#006946"/>
<circle cx="49.87" cy="75.04" r="4.96" fill="#1C4F9C"/>
<circle cx="55.31" cy="66.25" r="4.96" fill="#1C4F9C"/>
<circle cx="62.27" cy="58.62" r="4.96" fill="#1C4F9C"/>
<circle cx="70.52" cy="52.39" r="4.96" fill="#1C4F9C"/>
<circle cx="79.77" cy="47.78" r="4.96" fill="#1C4F9C"/>
<circle cx="89.71" cy="44.95" r="4.96" fill="#1C4F9C"/>
<circle cx="100.0" cy="31.0" r="4.96" fill="#E13940"/>
<circle cx="110.53" cy="31.81" r="4.96" fill="#E13940"/>
<circle cx="120.82" cy="34.22" r="4.96" fill="#E13940"/>
<circle cx="130.62" cy="38.16" r="4.96" fill="#E13940"/>
<circle cx="139.7" cy="43.56" r="4.96" fill="#E13940"/>
<circle cx="147.85" cy="50.28" r="4.96" fill="#E13940"/>
<circle cx="154.88" cy="58.17" r="4.96" fill="#E13940"/>
<circle cx="160.62" cy="67.04" r="4.96" fill="#E13940"/>
<circle cx="164.94" cy="76.68" r="4.96" fill="#E13940"/>
<circle cx="167.74" cy="86.86" r="4.96" fill="#E13940"/>
<circle cx="168.95" cy="97.36" r="4.96" fill="#E13940"/>
<circle cx="168.54" cy="107.91" r="4.96" fill="#E13940"/>
<circle cx="166.53" cy="118.28" r="4.96" fill="#E13940"/>
<circle cx="162.96" cy="128.23" r="4.96" fill="#E13940"/>
<circle cx="157.92" cy="137.51" r="4.96" fill="#E13940"/>
<circle cx="151.51" cy="145.91" r="4.96" fill="#E13940"/>
<circle cx="143.9" cy="153.23" r="4.96" fill="#E13940"/>
<circle cx="135.26" cy="159.31" r="4.96" fill="#E13940"/>
<circle cx="125.79" cy="164.0" r="4.96" fill="#E13940"/>
<circle cx="115.72" cy="167.18" r="4.96" fill="#E13940"/>
<circle cx="105.28" cy="168.8" r="4.96" fill="#E13940"/>
<circle cx="94.72" cy="168.8" r="4.96" fill="#E13940"/>
<circle cx="84.28" cy="167.18" r="4.96" fill="#E13940"/>
<circle cx="74.21" cy="164.0" r="4.96" fill="#E13940"/>
<circle cx="64.74" cy="159.31" r="4.96" fill="#E13940"/>
<circle cx="56.1" cy="153.23" r="4.96" fill="#E13940"/>
<circle cx="48.49" cy="145.91" r="4.96" fill="#008B96"/>
<circle cx="42.08" cy="137.51" r="4.96" fill="#008B96"/>
<circle cx="37.04" cy="128.23" r="4.96" fill="#808080"/>
<circle cx="33.47" cy="118.28" r="4.96" fill="#006946"/>
<circle cx="31.46" cy="107.91" r="4.96" fill="#006946"/>
<circle cx="31.05" cy="97.36" r="4.96" fill="#006946"/>
<circle cx="32.26" cy="86.86" r="4.96" fill="#006946"/>
<circle cx="35.06" cy="76.68" r="4.96" fill="#1C4F9C"/>
<circle cx="39.38" cy="67.04" r="4.96" fill="#1C4F9C"/>
<circle cx="45.12" cy="58.17" r="4.96" fill="#1C4F9C"/>
<circle cx="52.15" cy="50.28" r="4.96" fill="#1C4F9C"/>
<circle cx="60.3" cy="43.56" r="4.96" fill="#1C4F9C"/>
<circle cx="69.38" cy="38.16" r="4.96" fill="#1C4F9C"/>
<circle cx="79.18" cy="34.22" r="4.96" fill="#1C4F9C"/>
<circle cx="89.47" cy="31.81" r="4.96" fill="#1C4F9C"/>
<circle cx="100.0" cy="18.0" r="4.96" fill="#E13940"/>
<circle cx="110.49" cy="18.67" r="4.96" fill="#E13940"/>
<circle cx="120.8" cy="20.68" r="4.96" fill="#E13940"/>
<circle cx="130.77" cy="23.99" r="4.96" fill="#E13940"/>
<circle cx="140.24" cy="28.55" r="4.96" fill="#E13940"/>
<circle cx="149.05" cy="34.28" r="4.96" fill="#E13940"/>
<circle cx="157.05" cy="41.1" r="4.96" fill="#E13940"/>
<circle cx="164.11" cy="48.87" r="4.96" fill="#E13940"/>
<circle cx="170.12" cy="57.49" r="4.96" fill="#E13940"/>
<circle cx="174.98" cy="66.81" r="4.96" fill="#E13940"/>
<circle cx="178.61" cy="76.67" r="4.96" fill="#E13940"/>
<circle cx="180.95" cy="86.91" r="4.96" fill="#E13940"/>
<circle cx="181.96" cy="97.37" r="4.96" fill="#E13940"/>
<circle cx="181.62" cy="107.87" r="4.96" fill="#E13940"/>
<circle cx="179.94" cy="118.25" r="4.96" fill="#E13940"/>
<circle cx="176.95" cy="128.32" r="4.96" fill="#E13940"/>
<circle cx="172.7" cy="137.93" r="4.96" fill="#E13940"/>
<circle cx="167.25" cy="146.91" r="4.96" fill="#E13940"/>
<circle cx="160.7" cy="155.13" r="4.96" fill="#E13940"/>
<circle cx="153.15" cy="162.44" r="4.96" fill="#E13940"/>
<circle cx="144.73" cy="168.72" r="4.96" fill="#E13940"/>
<circle cx="135.58" cy="173.88" r="4.96" fill="#E13940"/>
<circle cx="125.84" cy="177.82" r="4.96" fill="#E13940"/>
<circle cx="115.68" cy="180.49" r="4.96" fill="#E13940"/>
<circle cx="105.25" cy="181.83" r="4.96" fill="#E13940"/>
<circle cx="94.75" cy="181.83" r="4.96" fill="#E13940"/>
<circle cx="84.32" cy="180.49" r="4.96" fill="#E13940"/>
<circle cx="74.16" cy="177.82" r="4.96" fill="#E13940"/>
<circle cx="64.42" cy="173.88" r="4.96" fill="#E13940"/>
<circle cx="55.27" cy="168.72" r="4.96" fill="#E13940"/>
<circle cx="46.85" cy="162.44" r="4.96" fill="#E13940"/>
<circle cx="39.3" cy="155.13" r="4.96" fill="#008B96"/>
<circle cx="32.75" cy="146.91" r="4.96" fill="#008B96"/>
<circle cx="27.3" cy="137.93" r="4.96" fill="#808080"/>
<circle cx="23.05" cy="128.32" r="4.96" fill="#8B4513"/>
<circle cx="20.06" cy="118.25" r="4.96" fill="#006946"/>
<circle cx="18.38" cy="107.87" r="4.96" fill="#006946"/>
<circle cx="18.04" cy="97.37" r="4.96" fill="#006946"/>
<circle cx="19.05" cy="86.91" r="4.96" fill="#006946"/>
<circle cx="21.39" cy="76.67" r="4.96" fill="#006946"/>
<circle cx="25.02" cy="66.81" r="4.96" fill="#1C4F9C"/>
<circle cx="29.88" cy="57.49" r="4.96" fill="#1C4F9C"/>
<circle cx="35.89" cy="48.87" r="4.96" fill="#1C4F9C"/>
<circle cx="42.95" cy="41.1" r="4.96" fill="#1C4F9C"/>
<circle cx="50.95" cy="34.28" r="4.96" fill="#1C4F9C"/>
<circle cx="59.76" cy="28.55" r="4.96" fill="#1C4F9C"/>
<circle cx="69.23" cy="23.99" r="4.96" fill="#1C4F9C"/>
<circle cx="79.2" cy="20.68" r="4.96" fill="#1C4F9C"/>
<circle cx="89.51" cy="18.67" r="4.96" fill="#1C4F9C"/>
</svg>