<svg viewBox="0 0 200 200" width="200" height="200" xmlns="http://www.w3.org/2000/svg">
<circle cx="100.0" cy="60.0" r="6.48" fill="#009900"/>
<circle cx="113.68" cy="62.41" r="6.48" fill="#009900"/>
<circle cx="125.71" cy="69.36" r="6.48" fill="#009900"/>
<circle cx="134.64" cy="80.0" r="6.48" fill="#E13940"/>
<circle cx="139.39" cy="93.05" r="6.48" fill="#E13940"/>
<circle cx="139.39" cy="106.95" r="6.48" fill="#E13940"/>
<circle cx="134.64" cy="120.0" r="6.48" fill="#E13940"/>
<circle cx="125.71" cy="130.64" r="6.48" fill="#E13940"/>
<circle cx="113.68" cy="137.59" r="6.48" fill="#E13940"/>
<circle cx="100.0" cy="140.0" r="6.48" fill="#808080"/>
<circle cx="86.32" cy="137.59" r="6.48" fill="#FFD700"/>
<circle cx="74.29" cy="130.64" r="6.48" fill="#F36C21"/>
<circle cx="65.36" cy="120.0" r="6.48" fill="#006946"/>
<circle cx="60.61" cy="106.95" r="6.48" fill="#1C4F9C"/>
<circle cx="60.61" cy="93.05" r="6.48" fill="#1C4F9C"/>
<circle cx="65.36" cy="80.0" r="6.48" fill="#1C4F9C"/>
<circle cx="74.29" cy="69.36" r="6.48" fill="#1C4F9C"/>
<circle cx="86.32" cy="62.41" r="6.48" fill="#1C4F9C"/>
<circle cx="100.0" cy="44.0" r="6.48" fill="#009900"/>
<circle cx="113.4" cy="45.63" r="6.48" fill="#009900"/>
<circle cx="126.02" cy="50.41" r="6.48" fill="#009900"/>
<circle cx="137.13" cy="58.08" r="6.48" fill="#E13940"/>
<circle cx="146.09" cy="68.19" r="6.48" fill="#E13940"/>
<circle cx="152.36" cy="80.14" r="6.48" fill="#E13940"/>
<circle cx="155.59" cy="93.25" r="6.48" fill="#E13940"/>
<circle cx="155.59" cy="106.75" r="6.48" fill="#E13940"/>
<circle cx="152.36" cy="119.86" r="6.48" fill="#E13940"/>
<circle cx="146.09" cy="131.81" r="6.48" fill="#E13940"/>
<circle cx="137.13" cy="141.92" r="6.48" fill="#E13940"/>
<circle cx="126.02" cy="149.59" r="6.48" fill="#E13940"/>
<circle cx="113.4" cy="154.37" r="6.48" fill="#E13940"/>
<circle cx="100.0" cy="156.0" r="6.48" fill="#808080"/>
<circle cx="86.6" cy="154.37" r="6.48" fill="#808080"/>
<circle cx="73.98" cy="149.59" r="6.48" fill="#F36C21"/>
<circle cx="62.87" cy="141.92" r="6.48" fill="#F36C21"/>
<circle cx="53.91" cy="131.81" r="6.48" fill="#006946"/>
<circle cx="47.64" cy="119.86" r="6.48" fill="#1C4F9C"/>
<circle cx="44.41" cy="106.75" r="6.48" fill="#1C4F9C"/>
<circle cx="44.41" cy="93.25" r="6.48" fill="#1C4F9C"/>
<circle cx="47.64" cy="80.14" r="6.48" fill="#1C4F9C"/>
<circle cx="53.91" cy="68.19" r="6.48" fill="#1C4F9C"/>
<circle cx="62.87" cy="58.08" r="6.48" fill="#1C4F9C"/>
<circle cx="73.98" cy="50.41" r="6.48" fill="#1C4F9C"/>
<circle cx="86.6" cy="45.63" r="6.48" fill="#1C4F9C"/>
<circle cx="100.0" cy="28.0" r="6.48" fill="#009900"/>
<circle cx="113.63" cy="29.3" r="6.48" fill="#009900"/>
<circle cx="126.76" cy="33.16" r="6.48" fill="#009900"/>
<circle cx="138.93" cy="39.43" r="6.48" fill="#009900"/>
<circle cx="149.69" cy="47.89" r="6.48" fill="#E13940"/>
<circle cx="158.65" cy="58.24" r="6.48" fill="#E13940"/>
<circle cx="165.49" cy="70.09" r="6.48" fill="#E13940"/>
<circle cx="169.97" cy="83.03" r="6.48" fill="#E13940"/>
<circle cx="171.92" cy="96.57" r="6.48" fill="#E13940"/>
<circle cx="171.27" cy="110.25" r="6.48" fill="#E13940"/>
<circle cx="168.04" cy="123.55" r="6.48" fill="#E13940"/>
<circle cx="162.35" cy="136.0" r="6.48" fill="#E13940"/>
<circle cx="154.41" cy="147.15" r="6.48" fill="#E13940"/>
<circle cx="144.51" cy="156.6" r="6.48" fill="#E13940"/>
<circle cx="132.99" cy="164.0" r="6.48" fill="#E13940"/>
<circle cx="120.28" cy="169.08" r="6.48" fill="#E13940"/>
<circle cx="106.84" cy="171.67" r="6.48" fill="#E13940"/>
<circle cx="93.16" cy="171.67" r="6.48" fill="#808080"/>
<circle cx="79.72" cy="169.08" r="6.48" fill="#00B4B4"/>
<circle cx="67.01" cy="164.0" r="6.48" fill="#8B008B"/>
<circle cx="55.49" cy="156.6" r="6.48" fill="#F36C21"/>
<circle cx="45.59" cy="147.15" r="6.48" fill="#006946"/>
<circle cx="37.65" cy="136.0" r="6.48" fill="#006946"/>
<circle cx="31.96" cy="123.55" r="6.48" fill="#1C4F9C"/>
<circle cx="28.73" cy="110.25" r="6.48" fill="#1C4F9C"/>
<circle cx="28.08" cy="96.57" r="6.48" fill="#1C4F9C"/>
<circle cx="30.03" cy="83.03" r="6.48" fill="#1C4F9C"/>
<circle cx="34.51" cy="70.09" r="6.48" fill="#1C4F9C"/>
<circle cx="41.35" cy="58.24" r="6.48" fill="#1C4F9C"/>
<circle cx="50.31" cy="47.89" r="6.48" fill="#1C4F9C"/>
<circle cx="61.07" cy="39.43" r="6.48" fill="#1C4F9C"/>
<circle cx="73.24" cy="33.16" r="6.48" fill="#1C4F9C"/>
<circle cx="86.37" cy="29.3" r="6.48" fill="#1C4F9C"/>
</svg>